<svg width="20" height="23" viewBox="0 0 20 23" fill="none" xmlns="http://www.w3.org/2000/svg">
<path d="M17.05 3.701C16.1331 2.68252 15.0411 1.87496 13.8376 1.3254C12.634 0.775835 11.3431 0.495251 10.04 0.5C4.58005 0.5 0.130049 5.395 0.130049 11.401C0.130049 13.326 0.590049 15.196 1.45005 16.846L0.0500488 22.5L5.30005 20.982C6.75005 21.851 8.38005 22.313 10.04 22.313C15.5 22.313 19.9501 17.418 19.9501 11.412C19.9501 8.497 18.92 5.758 17.05 3.701ZM10.04 20.465C8.56005 20.465 7.11005 20.025 5.84005 19.2L5.54005 19.002L2.42005 19.904L3.25005 16.56L3.05005 16.219C2.2276 14.7748 1.79097 13.1052 1.79005 11.401C1.79005 6.407 5.49005 2.337 10.03 2.337C12.23 2.337 14.3 3.283 15.85 4.999C16.6177 5.83925 17.226 6.8388 17.6397 7.93966C18.0534 9.04053 18.2642 10.2208 18.26 11.412C18.28 16.406 14.58 20.465 10.04 20.465ZM14.56 13.689C14.31 13.557 13.09 12.897 12.87 12.798C12.64 12.71 12.48 12.666 12.31 12.93C12.14 13.205 11.67 13.821 11.53 13.997C11.39 14.184 11.24 14.206 10.99 14.063C10.74 13.931 9.94005 13.634 9.00005 12.71C8.26005 11.984 7.77005 11.093 7.62005 10.818C7.48005 10.543 7.60005 10.4 7.73005 10.257C7.84005 10.136 7.98005 9.938 8.10005 9.784C8.22005 9.63 8.27005 9.509 8.35005 9.333C8.43005 9.146 8.39005 8.992 8.33005 8.86C8.27005 8.728 7.77005 7.386 7.57005 6.836C7.37005 6.308 7.16005 6.374 7.01005 6.363H6.53005C6.36005 6.363 6.10005 6.429 5.87005 6.704C5.65005 6.979 5.01005 7.639 5.01005 8.981C5.01005 10.323 5.90005 11.621 6.02005 11.797C6.14005 11.984 7.77005 14.734 10.25 15.911C10.84 16.197 11.3 16.362 11.66 16.483C12.25 16.692 12.79 16.659 13.22 16.593C13.7 16.516 14.69 15.933 14.89 15.295C15.1 14.657 15.1 14.118 15.03 13.997C14.96 13.876 14.81 13.821 14.56 13.689Z" fill="white"/>
</svg>
